<?xml version="1.0" encoding="utf-8" ?>
<!-- Generator: Adobe Illustrator 16.0.0, SVG Export Plug-In . SVG Version: 6.00 Build 0)  -->
<!DOCTYPE svg PUBLIC "-//W3C//DTD SVG 1.1//EN" "http://www.w3.org/Graphics/SVG/1.1/DTD/svg11.dtd">
<svg version="1.1" id="svgIcon" xmlns="http://www.w3.org/2000/svg" xmlns:xlink="http://www.w3.org/1999/xlink" x="0px" y="0px"
     width="30px" height="30px" viewBox="0 0 30 30" enable-background="new 0 0 30 30" xml:space="preserve">
<path fill="#fff" d="M14.99,29.908c-4.03-1.08-9.033-5.189-8.989-11.676C6.044,11.745,11.87,6.037,18,6.037
	c6.131,0,12,5.968,12,12.195c0,6.227-5.629,10.982-8.75,11.676c-1.962,0.436-2.488-0.779-2.488-1.558c0-1.557,0-4.411,0-4.411
	c-0.016,0.298-0.162-0.98,0.799-2.002c1.186-1.264,3.256-3.705,3.256-3.705l-4.696-4.93l-4.776,4.93c0,0,2.494,2.918,3.211,3.632
	c0.718,0.714,1.044,1.514,1.044,2.075c0,1.125,0,3.867,0,4.411C17.599,29.172,16.355,30.273,14.99,29.908z M15.512,27.054
	c0,0,0.132-1.698,0.029-2.597c-0.107-0.923-5.041-6.24-5.041-6.24l7.62-8.028l7.565,8.044c0,0-5.076,5.002-5.165,6.165
	c-0.091,1.175,0.06,2.34,0.06,2.34s0.171,0.835,0.671,0.835c0.499,0,6.71-4.469,6.71-9.355c0-4.886-4.982-10.104-9.961-10.104
	c-4.978,0-9.84,4.31-9.84,10.104c0,5.795,4.938,8.664,6.047,9.096C15.316,27.746,15.512,27.054,15.512,27.054z" />
</svg>
